<svg width="184" height="42" viewBox="0 0 184 42" fill="none" xmlns="http://www.w3.org/2000/svg">
<g clip-path="url(#clip0_11_713)">
<circle cx="20" cy="21.5" r="20" fill="#FF9053"/>
</g>
<path d="M56.23 20.47C56.23 20.9367 56.5333 21.3217 57.14 21.625C57.77 21.905 58.5283 22.1617 59.415 22.395C60.3017 22.605 61.1883 22.885 62.075 23.235C62.9617 23.5617 63.7083 24.1217 64.315 24.915C64.945 25.7083 65.26 26.7 65.26 27.89C65.26 29.6867 64.5833 31.075 63.23 32.055C61.9 33.0117 60.2317 33.49 58.225 33.49C54.6317 33.49 52.1817 32.1017 50.875 29.325L54.795 27.12C55.3083 28.6367 56.4517 29.395 58.225 29.395C59.835 29.395 60.64 28.8933 60.64 27.89C60.64 27.4233 60.325 27.05 59.695 26.77C59.0883 26.4667 58.3417 26.1983 57.455 25.965C56.5683 25.7317 55.6817 25.44 54.795 25.09C53.9083 24.74 53.15 24.1917 52.52 23.445C51.9133 22.675 51.61 21.7183 51.61 20.575C51.61 18.8483 52.24 17.495 53.5 16.515C54.7833 15.5117 56.37 15.01 58.26 15.01C59.6833 15.01 60.9783 15.3367 62.145 15.99C63.3117 16.62 64.2333 17.53 64.91 18.72L61.06 20.82C60.5 19.63 59.5667 19.035 58.26 19.035C57.6767 19.035 57.1867 19.1633 56.79 19.42C56.4167 19.6767 56.23 20.0267 56.23 20.47ZM77.8936 15.01C79.807 15.01 81.382 15.6517 82.6186 16.935C83.8786 18.2183 84.5086 19.9917 84.5086 22.255V33H79.9936V22.815C79.9936 21.6483 79.6786 20.7617 79.0486 20.155C78.4186 19.525 77.5786 19.21 76.5286 19.21C75.362 19.21 74.4286 19.5717 73.7286 20.295C73.0286 21.0183 72.6786 22.1033 72.6786 23.55V33H68.1636V8.5H72.6786V17.46C73.7753 15.8267 75.5136 15.01 77.8936 15.01ZM92.1788 26.105C92.7855 28.2983 94.4305 29.395 97.1138 29.395C98.8405 29.395 100.147 28.8117 101.034 27.645L104.674 29.745C102.947 32.2417 100.404 33.49 97.0438 33.49C94.1505 33.49 91.8288 32.615 90.0788 30.865C88.3288 29.115 87.4538 26.91 87.4538 24.25C87.4538 21.6133 88.3172 19.42 90.0438 17.67C91.7705 15.8967 93.9872 15.01 96.6938 15.01C99.2605 15.01 101.372 15.8967 103.029 17.67C104.709 19.4433 105.549 21.6367 105.549 24.25C105.549 24.8333 105.49 25.4517 105.374 26.105H92.1788ZM92.1088 22.605H101.034C100.777 21.415 100.24 20.5283 99.4238 19.945C98.6305 19.3617 97.7205 19.07 96.6938 19.07C95.4805 19.07 94.4772 19.385 93.6838 20.015C92.8905 20.6217 92.3655 21.485 92.1088 22.605ZM118.431 15.01C120.344 15.01 121.919 15.6517 123.156 16.935C124.416 18.2183 125.046 19.9917 125.046 22.255V33H120.531V22.815C120.531 21.6483 120.216 20.7617 119.586 20.155C118.956 19.525 118.116 19.21 117.066 19.21C115.899 19.21 114.966 19.5717 114.266 20.295C113.566 21.0183 113.216 22.1033 113.216 23.55V33H108.701V15.5H113.216V17.46C114.312 15.8267 116.051 15.01 118.431 15.01ZM139.086 15.01C141.443 15.01 143.449 15.9083 145.106 17.705C146.786 19.4783 147.626 21.66 147.626 24.25C147.626 26.84 146.786 29.0333 145.106 30.83C143.449 32.6033 141.443 33.49 139.086 33.49C136.636 33.49 134.746 32.6383 133.416 30.935V33H128.901V8.5H133.416V17.565C134.746 15.8617 136.636 15.01 139.086 15.01ZM134.781 27.82C135.691 28.73 136.846 29.185 138.246 29.185C139.646 29.185 140.801 28.73 141.711 27.82C142.644 26.8867 143.111 25.6967 143.111 24.25C143.111 22.8033 142.644 21.625 141.711 20.715C140.801 19.7817 139.646 19.315 138.246 19.315C136.846 19.315 135.691 19.7817 134.781 20.715C133.871 21.625 133.416 22.8033 133.416 24.25C133.416 25.6967 133.871 26.8867 134.781 27.82ZM154.625 26.105C155.232 28.2983 156.877 29.395 159.56 29.395C161.287 29.395 162.593 28.8117 163.48 27.645L167.12 29.745C165.393 32.2417 162.85 33.49 159.49 33.49C156.597 33.49 154.275 32.615 152.525 30.865C150.775 29.115 149.9 26.91 149.9 24.25C149.9 21.6133 150.763 19.42 152.49 17.67C154.217 15.8967 156.433 15.01 159.14 15.01C161.707 15.01 163.818 15.8967 165.475 17.67C167.155 19.4433 167.995 21.6367 167.995 24.25C167.995 24.8333 167.937 25.4517 167.82 26.105H154.625ZM154.555 22.605H163.48C163.223 21.415 162.687 20.5283 161.87 19.945C161.077 19.3617 160.167 19.07 159.14 19.07C157.927 19.07 156.923 19.385 156.13 20.015C155.337 20.6217 154.812 21.485 154.555 22.605ZM175.662 18.51C176.082 17.39 176.77 16.55 177.727 15.99C178.707 15.43 179.792 15.15 180.982 15.15V20.19C179.605 20.0267 178.369 20.3067 177.272 21.03C176.199 21.7533 175.662 22.955 175.662 24.635V33H171.147V15.5H175.662V18.51Z" fill="black"/>
<defs>
<clipPath id="clip0_11_713">
<rect width="40" height="41" fill="white" transform="translate(0 0.5)"/>
</clipPath>
</defs>
</svg>
